<?xml version="1.0" encoding="UTF-8" standalone="no"?>
<svg
   xmlns:dc="http://purl.org/dc/elements/1.1/"
   xmlns:cc="http://creativecommons.org/ns#"
   xmlns:rdf="http://www.w3.org/1999/02/22-rdf-syntax-ns#"
   xmlns:svg="http://www.w3.org/2000/svg"
   xmlns="http://www.w3.org/2000/svg"
   viewBox="0 0 853.34668 640.01331"
   height="640.01331"
   width="853.34668"
   xml:space="preserve"
   id="svg2"
   version="1.1"><metadata
     id="metadata8"><rdf:RDF><cc:Work
         rdf:about=""><dc:format>image/svg+xml</dc:format><dc:type
           rdf:resource="http://purl.org/dc/dcmitype/StillImage" /></cc:Work></rdf:RDF></metadata><defs
     id="defs6" /><g
     transform="matrix(1.3333333,0,0,-1.3333333,0,640.01333)"
     id="g10"><g
       transform="scale(0.1)"
       id="g12"><path
         id="path14"
         style="fill:#7dbee7;fill-opacity:1;fill-rule:nonzero;stroke:none"
         d="M 0,4800.07 H 6400.08 V 0 H 0 v 4800.07" /><path
         id="path16"
         style="fill:#669fd7;fill-opacity:1;fill-rule:nonzero;stroke:none"
         d="M 547.383,468.055 927.68,0 h 486.01 l -378.62,503.965 -487.687,-35.91" /><path
         id="path18"
         style="fill:#669fd7;fill-opacity:1;fill-rule:nonzero;stroke:none"
         d="M 1011.41,201.934 1206.23,0 h 528.22 l -336.78,244.559 -386.26,-42.625" /><path
         id="path20"
         style="fill:#669fd7;fill-opacity:1;fill-rule:nonzero;stroke:none"
         d="M 2075.37,408.848 2547.27,0 h 518.57 l -590.11,444.707 -400.36,-35.859" /><path
         id="path22"
         style="fill:#669fd7;fill-opacity:1;fill-rule:nonzero;stroke:none"
         d="M 2962.56,271.738 3385.77,0 h 704.24 l -913.17,368.379 -214.28,-96.641" /><path
         id="path24"
         style="fill:#669fd7;fill-opacity:1;fill-rule:nonzero;stroke:none"
         d="M 5869.02,1091.37 6400.01,921.902 V 1070.3 l -347.67,76.06 -183.32,-54.99" /><path
         id="path26"
         style="fill:#669fd7;fill-opacity:1;fill-rule:nonzero;stroke:none"
         d="m 4477.21,494.695 -424.4,232.551 325.53,129.481 2021.67,-680.711 v 466.386 l -486.18,148.938 -252.7,66.726 -6.32,12.649 -85.95,171.915 -1283.94,191.97 -177.69,-88.85 445.13,-148.367 -722.02,-80.215 -920.53,247.122 -168.8,-74.49 859.82,-263.374 -193.19,-167.754 399.87,-185.149 -58.65,-71.941 513.65,-188.098 -80.84,-76.796 L 4520.25,0 h 1046.97 l -1248.93,440.242 158.92,54.453" /><path
         id="path28"
         style="fill:#ccced4;fill-opacity:1;fill-rule:nonzero;stroke:none"
         d="m 5819.11,1516.96 51.59,-431.65 c 0,0 239.03,-87.705 447.12,0 l 25.81,436.82 -524.52,-5.17" /><path
         id="path30"
         style="fill:#ccced4;fill-opacity:1;fill-rule:nonzero;stroke:none"
         d="m 6360.16,1518.77 c 0,-24.98 -125.05,-45.23 -279.29,-45.23 -154.21,0 -279.28,20.25 -279.28,45.23 0,24.97 125.07,45.21 279.28,45.21 154.24,0 279.29,-20.24 279.29,-45.21" /><path
         id="path32"
         style="fill:#ccced4;fill-opacity:1;fill-rule:nonzero;stroke:none"
         d="m 6326.55,1518.77 c 0,-18.74 -108.98,-33.94 -243.41,-33.94 -134.42,0 -243.37,15.2 -243.37,33.94 0,18.71 108.95,33.91 243.37,33.91 134.43,0 243.41,-15.2 243.41,-33.91" /><path
         id="path34"
         style="fill:#ccced4;fill-opacity:1;fill-rule:nonzero;stroke:none"
         d="m 6326.55,1518.77 c 0,-18.74 -108.98,-33.94 -243.41,-33.94 -134.42,0 -243.37,15.2 -243.37,33.94 0,18.71 108.95,33.91 243.37,33.91 134.43,0 243.41,-15.2 243.41,-33.91" /><path
         id="path36"
         style="fill:#3d8a3f;fill-opacity:1;fill-rule:nonzero;stroke:none"
         d="m 5983.78,1491.91 c 0,0 -18.26,115.26 -59.96,159.75 0,0 80.63,26.41 152.95,43.11 0,0 27.12,-140.64 41.03,-210.14 0,0 -61.28,-6.65 -134.02,7.28" /><path
         id="path38"
         style="fill:#6fab70;fill-opacity:1;fill-rule:nonzero;stroke:none"
         d="m 6065.23,1672.59 c -66.07,-3.27 -119.87,-29.54 -120.35,-29.65 -0.34,-0.09 -0.61,-0.31 -0.72,-0.63 -0.14,-0.32 -0.11,-0.7 0.08,-0.94 41.69,-64.42 68.03,-136.93 68.27,-137.81 0.13,-0.55 0.68,-0.9 1.25,-0.76 0.42,0.11 0.72,0.45 0.78,0.86 0.02,0.13 0.02,0.27 -0.03,0.4 -0.21,0.88 -26.37,72.6 -67.75,137.17 6.88,1.55 57.13,26.15 117.77,29.22 2.77,-8.14 32.56,-124.26 35.02,-176.03 0.03,-0.58 0.5,-1.01 1.09,-0.97 0.58,0 1.02,0.5 0.99,1.06 -2.54,53.49 -34.9,176.01 -35.37,177.35 -0.15,0.45 -0.58,0.75 -1.03,0.73" /><path
         id="path40"
         style="fill:#6fab70;fill-opacity:1;fill-rule:nonzero;stroke:none"
         d="m 6043,1507.72 c -19.04,-3.14 -35.92,3.05 -37.71,13.84 -1.79,10.81 12.16,22.11 31.19,25.28 19.04,3.16 35.92,-3.01 37.7,-13.79 1.82,-10.82 -12.16,-22.14 -31.18,-25.33" /><path
         id="path42"
         style="fill:#559e52;fill-opacity:1;fill-rule:nonzero;stroke:none"
         d="m 6195.25,1493.11 c 0,0 24.75,97.36 66.47,141.86 0,0 -68.13,27.81 -140.45,44.5 0,0 -42.76,-126.9 -56.67,-196.42 0,0 57.88,-3.88 130.65,10.06" /><path
         id="path44"
         style="fill:#a4c8a5;fill-opacity:1;fill-rule:nonzero;stroke:none"
         d="m 6243.65,1624.54 c -0.11,0.29 -0.37,0.57 -0.72,0.64 -0.46,0.13 -48.67,31.1 -114.6,36.27 -0.46,0.02 -0.91,-0.22 -1.06,-0.67 -0.46,-1.19 -35.82,-116.35 -47.94,-177.87 l 2.13,0.16 c 11.79,59.36 44.86,169.18 47.46,176.25 60.54,-4.82 105.24,-34.04 112.06,-35.78 -36.01,-52.84 -54.27,-113.54 -61.03,-135.26 l 2.31,0.33 c 7.12,22.78 25.45,82.97 61.26,134.97 0.22,0.27 0.25,0.63 0.13,0.96" /><path
         id="path46"
         style="fill:#a4c8a5;fill-opacity:1;fill-rule:nonzero;stroke:none"
         d="m 6128.63,1491.24 c -18.84,4.19 -32.19,16.24 -29.83,26.92 2.39,10.7 19.57,15.97 38.38,11.8 18.84,-4.22 32.2,-16.22 29.82,-26.89 -2.36,-10.7 -19.57,-15.99 -38.37,-11.83" /><path
         id="path48"
         style="fill:#6cb26a;fill-opacity:1;fill-rule:nonzero;stroke:none"
         d="m 5913.12,1494.48 c 0,0 -47.71,97.38 -89.43,141.9 0,0 63.95,30.57 136.28,47.26 0,0 71.96,-130.01 85.86,-199.56 0,0 -68.31,-1.03 -132.71,10.4" /><path
         id="path50"
         style="fill:#b0d3b1;fill-opacity:1;fill-rule:nonzero;stroke:none"
         d="m 5953.5,1667.99 c -64.7,-13.78 -111.66,-33.24 -112.13,-33.44 -0.32,-0.14 -0.54,-0.41 -0.62,-0.72 -0.07,-0.35 0.02,-0.7 0.23,-0.95 51.44,-56.92 87.09,-139.33 87.45,-140.16 0.21,-0.53 0.82,-0.78 1.36,-0.55 0.39,0.17 0.62,0.55 0.62,0.96 0,0.14 -0.02,0.28 -0.08,0.42 -0.36,0.81 -35.67,82.47 -86.81,139.62 6.53,2.64 50.27,19.88 109.64,32.59 4.03,-7.6 68.12,-129.09 78.79,-179.78 0.12,-0.59 0.68,-0.95 1.23,-0.82 0.57,0.12 0.93,0.66 0.8,1.23 -11.01,52.38 -78.66,179.77 -79.34,181.06 -0.23,0.4 -0.69,0.62 -1.14,0.54" /><path
         id="path52"
         style="fill:#b0d3b1;fill-opacity:1;fill-rule:nonzero;stroke:none"
         d="m 5970.71,1508.93 c -18.56,-5.25 -36.02,-0.93 -38.99,9.62 -2.96,10.5 9.7,23.27 28.26,28.52 18.54,5.2 36.02,0.93 38.98,-9.61 2.97,-10.55 -9.68,-23.33 -28.25,-28.53" /><path
         id="path54"
         style="fill:#6cb26a;fill-opacity:1;fill-rule:nonzero;stroke:none"
         d="m 6282.84,1494.48 c 0,0 47.71,97.38 89.43,141.9 0,0 -63.97,30.57 -136.27,47.26 0,0 -69.52,-127.94 -83.44,-197.46 0,0 65.35,0 130.28,8.3" /><path
         id="path56"
         style="fill:#b0d3b1;fill-opacity:1;fill-rule:nonzero;stroke:none"
         d="m 6240.87,1667.66 c 64.59,-14.26 111.56,-37.31 112.02,-37.5 0.32,-0.14 0.55,-0.41 0.62,-0.75 0.08,-0.34 -0.03,-0.68 -0.26,-0.93 -51.86,-56.52 -81.53,-133.36 -81.89,-134.18 -0.23,-0.53 -0.85,-0.75 -1.38,-0.53 -0.39,0.18 -0.62,0.55 -0.61,0.96 0,0.11 0.01,0.28 0.08,0.39 0.36,0.83 29.72,76.91 81.28,133.66 -6.5,2.7 -50.28,23.49 -109.55,36.64 -4.08,-7.55 -62.34,-126.47 -73.41,-177.1 -0.11,-0.57 -0.67,-0.9 -1.25,-0.79 -0.57,0.11 -0.92,0.68 -0.79,1.24 11.43,52.28 73.29,177.08 74,178.37 0.21,0.4 0.69,0.6 1.14,0.52" /><path
         id="path58"
         style="fill:#b0d3b1;fill-opacity:1;fill-rule:nonzero;stroke:none"
         d="m 6225.3,1508.07 c -18.03,6.84 -29.51,20.69 -25.61,30.92 3.9,10.25 21.66,12.97 39.67,6.15 18.03,-6.87 29.51,-20.71 25.62,-30.95 -3.87,-10.22 -21.65,-12.97 -39.68,-6.12" /><path
         id="path60"
         style="fill:#815c49;fill-opacity:1;fill-rule:nonzero;stroke:none"
         d="M 2880.64,1205.14 2739,1093.59 c 5,-19.66 108.15,-24.79 174.56,-13.46 72.94,12.45 109.45,42.55 109.45,42.55 l -142.37,82.46" /><path
         id="path62"
         style="fill:#bfc3ca;fill-opacity:1;fill-rule:nonzero;stroke:none"
         d="m 2701.49,1900.67 c 29.62,-70.02 53.15,-103.1 100.44,-157.49 81.99,-94.33 24.93,-176.79 25.41,-206.94 0.47,-30.18 60.2,-118.82 65.57,-138.82 5.35,-20.07 -12.11,-191.41 -12.11,-191.41 l 142.21,-83.33 c 0,0 -3.88,246.53 -14.32,271.52 -9.54,22.79 -2.15,293.52 -0.78,340.72 47.48,299.14 -144.43,488.27 -306.42,165.75" /><path
         id="path64"
         style="fill:#9aa0a7;fill-opacity:1;fill-rule:nonzero;stroke:none"
         d="m 5535.8,2244.97 c -33.07,-14.3 -112.11,-99.34 -47.48,-235.79 64.66,-136.45 104.54,-163.37 68.06,-211.52 0,0 42.29,5.84 75.06,164.95 32.8,159.14 -30.74,310.44 -95.64,282.36" /><path
         id="path66"
         style="fill:#ffffff;fill-opacity:1;fill-rule:nonzero;stroke:none"
         d="m 5470.01,3512.15 c 0,0 94.42,-1133.94 90.67,-1336 0,0 -71.94,145.14 -127.95,1049.81 l 37.28,286.19" /><path
         id="path68"
         style="fill:#815c49;fill-opacity:1;fill-rule:nonzero;stroke:none"
         d="m 4185.46,1294.43 c 0,0 -104.6,-111.83 -109.05,-138.96 -4.44,-27.2 149.48,-8.61 177.68,-5.82 28.2,2.82 103.04,65.67 99.89,115.21 -3.14,49.55 -168.52,29.57 -168.52,29.57" /><path
         id="path70"
         style="fill:#bfc3ca;fill-opacity:1;fill-rule:nonzero;stroke:none"
         d="m 4377.8,1711.63 c 0,0 18.25,83.69 29.58,227.63 -159.41,19.63 -199.19,-152.72 -199.19,-152.72 82.04,-272.55 -22.74,-494.45 -22.74,-494.45 94.86,-49.05 171.05,-46.03 171.05,-46.03 0,0 6.25,27.65 4.98,131 -1.23,103.35 58.16,275.73 64.41,303.34 6.25,27.63 -48.09,31.23 -48.09,31.23" /><path
         id="path72"
         style="fill:#eb7b96;fill-opacity:1;fill-rule:nonzero;stroke:none"
         d="m 4487.14,1637.88 -57.65,7.54 c 0,0 -29.61,-283.33 44.2,-279.75 49.29,2.38 13.45,272.21 13.45,272.21" /><path
         id="path74"
         style="fill:#ed92a8;fill-opacity:1;fill-rule:nonzero;stroke:none"
         d="m 4541.5,1589.46 66.32,46.49 c 0,0 48.71,-305.66 -22.65,-300.71 -52.02,3.61 -43.67,254.22 -43.67,254.22" /><path
         id="path76"
         style="fill:#ed92a8;fill-opacity:1;fill-rule:nonzero;stroke:none"
         d="m 4321.94,1807.95 c 0,0 -27.02,-265.23 223.37,-270.22 250.35,-5 458.21,128.95 400.37,396.23 -57.81,267.3 -170.02,296.78 -272.57,281.75 -102.55,-14.99 -351.17,-407.76 -351.17,-407.76" /><path
         id="path78"
         style="fill:#eb7b96;fill-opacity:1;fill-rule:nonzero;stroke:none"
         d="m 4703.59,1633.24 -56.02,-7.77 c 0,0 -39.03,-311.08 47.66,-282.19 37.56,12.55 8.36,289.96 8.36,289.96" /><path
         id="path80"
         style="fill:#815c49;fill-opacity:1;fill-rule:nonzero;stroke:none"
         d="m 5004.32,1221.86 c 0,0 -127.57,-115.5 -135.07,-145.49 -7.49,-29.98 101.64,-6.35 133.48,-5.85 31.85,0.46 66.79,-70.657 98.8,-80.098 32.02,-9.426 87.64,126.808 88.72,182.558 1.12,55.78 -185.93,48.88 -185.93,48.88" /><path
         id="path82"
         style="fill:#815c49;fill-opacity:1;fill-rule:nonzero;stroke:none"
         d="m 3294.84,1116.93 c 0,0 -124.02,-75.2 -145.93,-132.125 0,0 30.02,-28.821 112.3,-21.465 155.74,13.887 236.43,56.09 236.43,56.09 l -202.8,97.5" /><path
         id="path84"
         style="fill:#ccced4;fill-opacity:1;fill-rule:nonzero;stroke:none"
         d="m 4625.27,3500.69 c 0,0 13.23,264.91 107.19,269.87 93.99,4.97 133.29,-170.31 310.03,-223.26 176.71,-52.94 -417.22,-46.61 -417.22,-46.61" /><path
         id="path86"
         style="fill:#e4e6e9;fill-opacity:1;fill-rule:nonzero;stroke:none"
         d="m 5297.01,3663.83 c -171.29,12.42 -255.15,-43.76 -255.15,-43.76 -86.4,54.01 -373.08,44.48 -604.33,30.75 -231.25,-13.68 -592.76,-64.65 -592.76,-64.65 0,0 23.57,101.03 -32,115.24 -55.57,14.23 -189.76,-93.55 -189.76,-93.55 -58.4,12.94 -98.17,6.32 -151.81,14.13 -43.74,6.35 -143.25,58.53 -243.38,125.28 -168.75,112.5 -383.8,-5.56 -383.8,-5.56 l -286.19,-888.78 c -75.42,-336.82 -38.07,-444.93 56.74,-715.17 40.15,-114.4 38.06,-185.79 59.82,-237.19 95.24,-147.52 314.25,-158.54 314.25,-158.54 125.16,-22.24 222.49,2.77 222.49,2.77 0,0 16.69,-116.79 8.35,-200.23 -4.01,-40.03 83.44,-166.86 83.44,-166.86 33.37,-154.35 -8.08,-260.78 -8.08,-260.78 31.38,-75.05 202.8,-97.5 202.8,-97.5 0,0 -52.88,245.64 -61.22,425.04 -3.14,67.18 86.22,383.8 86.22,383.8 0,0 310.84,86.93 628.54,-44.5 316.2,-130.8 639.19,227.17 639.19,227.17 0,0 -6.26,-241.65 19.92,-306.64 26.19,-65 217.35,-62.01 217.35,-62.01 -3.76,-80.58 -57.37,-192.13 -51.6,-237.3 5.72,-45.22 45.48,-14.42 45.48,-14.42 l -17.42,-171.33 c 101.66,-63.82 187.25,-67.54 187.25,-67.54 0,0 9.57,30.36 17.82,146.23 8.22,115.87 90.85,303.33 100.44,333.66 9.57,30.34 -50.95,39.48 -50.95,39.48 0,0 62.24,202.27 87.29,529.73 25.03,327.49 92.5,743.54 117.94,1045.86 25.46,302.31 4.41,404.77 -166.88,417.17" /><path
         id="path88"
         style="fill:#3a4041;fill-opacity:1;fill-rule:nonzero;stroke:none"
         d="m 3386.35,3496.96 c -33.36,-58.4 8.35,-75.08 0,-108.46 -25.02,-58.41 -16.68,-58.41 -58.4,-116.8 -66.74,-91.79 -158.52,-166.88 -50.06,-267 33.37,-33.38 108.46,-16.69 141.84,-50.06 58.41,-50.07 16.69,-58.41 33.38,-125.15 33.37,-91.78 41.7,-100.13 158.51,-100.13 83.44,0 175.23,41.72 258.66,33.37 83.44,-8.34 191.9,-91.77 183.56,83.44 0,50.06 -83.45,58.4 -66.76,116.81 16.69,41.72 100.13,83.43 133.49,75.09 66.75,-16.68 33.39,-66.75 58.41,-108.46 8.34,-16.69 33.38,-66.75 41.72,-75.1 16.69,-41.71 66.75,-25.02 75.09,-91.78 8.35,-58.4 -33.37,-91.77 -50.06,-133.49 -41.71,-116.81 -75.09,-150.18 0,-241.97 50.06,-58.4 175.22,-166.86 241.97,-175.21 91.76,-16.69 166.85,50.06 200.24,125.17 16.69,33.36 -8.35,83.42 8.34,116.8 25.04,50.06 91.78,83.43 125.16,133.49 66.74,91.78 100.11,150.19 25.02,241.97 -50.05,66.74 -216.93,83.43 -141.83,208.58 133.51,-41.71 250.31,100.12 125.14,200.25 -41.71,25.03 -108.45,16.68 -150.18,50.06 -16.69,16.68 -25.04,66.74 -41.71,83.42 -25.04,16.7 -83.45,16.7 -91.77,33.38 -87.7,107.93 53.61,161.32 31.62,252.77 -47.59,-1.91 -94.95,-4.43 -140.2,-7.13 -231.25,-13.68 -592.76,-64.65 -592.76,-64.65 0,0 23.57,101.03 -32,115.24 -55.57,14.23 -189.76,-93.55 -189.76,-93.55 -47.76,10.57 -83.08,8.1 -123.69,11.1 1.19,-66.16 -78.56,-60.06 -112.97,-122" /><path
         id="path90"
         style="fill:#f2f3f5;fill-opacity:1;fill-rule:nonzero;stroke:none"
         d="m 2823.82,2869.93 c -75.64,-80.66 -184.43,-122.71 -289.89,-138.36 -40.7,-246.48 -1.75,-358.96 80.64,-593.81 40.15,-114.4 38.06,-185.79 59.82,-237.19 19.03,-29.49 43.05,-53.45 69.26,-73.05 -80.97,77.28 -48.44,220.96 -8.09,317.79 8.35,16.69 8.35,50.06 0,66.75 -66.75,83.44 -175.21,191.9 -91.78,283.68 1.94,1.94 3.78,3.72 5.69,5.59 2.24,10.8 6.25,20.67 11,27.8 61.73,115.73 173.31,202.96 163.35,340.8" /><path
         id="path92"
         style="fill:#3a4041;fill-opacity:1;fill-rule:nonzero;stroke:none"
         d="m 3225.55,2370.18 c 43.59,8.07 80.32,32.67 66.75,58.71 -31.34,108.09 -47.85,211.49 14.81,306.31 28.98,39.94 -21.17,88.51 -85.41,92.43 -49.37,-0.81 -93.22,-36.08 -117.49,-61.16 -100.21,-122.33 -24.28,-329.17 121.34,-396.29" /><path
         id="path94"
         style="fill:#3a4041;fill-opacity:1;fill-rule:nonzero;stroke:none"
         d="m 3670.25,2505.4 c -20.41,-19.37 -30.53,-46.74 -30.67,-74.7 24.38,-73.32 115.99,-115.19 184.29,-159.77 75.65,-47.27 119.51,-182.37 237.55,-112.47 90.38,66.66 -111.41,113.19 -65.78,202.67 59.5,91.1 18.87,198.55 -69.01,230.34 -101.68,30.19 -178.22,-34.85 -256.38,-86.07" /><path
         id="path96"
         style="fill:#3a4041;fill-opacity:1;fill-rule:nonzero;stroke:none"
         d="m 5054.73,3239 c 14.37,-27.65 -12.82,-69.88 1.32,-83.57 56.59,-54.87 153.87,-39.39 180.84,16.77 60.77,139.43 -60.5,276.02 -207.79,299.07 -64.75,-0.87 -120.76,-23.1 -143.69,-95.64 -40.02,-112.07 112.52,-67.88 169.32,-136.63" /><path
         id="path98"
         style="fill:#e4e6e9;fill-opacity:1;fill-rule:nonzero;stroke:none"
         d="m 2778.07,3319.94 c 10.62,115.51 105.3,198.04 192.07,273.05 51.97,55.6 73.24,127.5 76.29,202.66 -68.78,47.96 -158.56,167.9 -267.75,164.88 -146.75,-4.04 -149.18,-76.8 -210.27,-105.8 -39.77,-18.87 -61.2,-36.22 -77.85,-49.08 -55.08,-202.61 -76.46,-534.48 -159.57,-617.3 -32.58,-35.78 -43.78,-52.95 -43.78,-52.95 0,0 -46.93,35.37 -92.19,16.47 -45.27,-18.91 -12.38,-108.39 11.68,-149.49 0,0 -30.15,-47.74 -38.5,-85.29 -5.23,-23.58 -5.86,-78.37 6.68,-106.88 14.61,-33.17 -34.71,-76.32 75.21,-79.08 0,0 -20.07,-63.1 95.05,-56.4 85.13,4.96 222.48,-23.57 314.06,7.57 59.03,20.09 76.03,53.24 139.07,118.67 -1.38,171.49 -39.39,345.95 -20.2,518.97" /><path
         id="path100"
         style="fill:#3a4041;fill-opacity:1;fill-rule:nonzero;stroke:none"
         d="m 2326.01,3144.08 c 34.91,6.85 51.73,62.39 75.45,84.95 63.25,60.17 115.43,139.9 132.87,220.5 8.68,38.36 25.18,80.42 14.47,115.42 -7.14,23.32 -37.6,39.53 -41.08,55.04 -3.26,23.24 16.31,34.33 16.79,53.61 0.87,34.72 4.52,26.9 -2.42,57.96 -3.57,11.65 -18.98,12.04 -22.16,39.13 0.49,19.9 15.55,44.22 31.47,64.04 -80.75,-28.07 -32.62,-60.24 -76.32,-56.48 -254.14,21.79 -297.6,-69.73 -269.9,-93.58 110.56,-95.16 245.5,-60.15 245.5,-60.15 0,0 -34.59,-39.41 -58.32,-68.03 -19.22,-23.17 2.92,-62.27 -3.91,-117.93 -5.42,-44.22 -2.18,-110.96 -41.56,-182.58 -23.85,-43.39 -39.68,-120.58 -39.68,-120.58 0,0 18.59,5.18 38.8,8.68" /><path
         id="path102"
         style="fill:#3a4041;fill-opacity:1;fill-rule:nonzero;stroke:none"
         d="m 3204,3787.81 c -71.7,-4.92 -85.14,-23.09 -110.97,-12.67 -22.38,9.04 -67.87,36.01 -95.49,60.92 6.33,-62.37 -19.63,-82.26 -65.39,-116.04 -10.54,-10.04 -41.53,-14.4 -57.34,-29.44 -10.54,-10.03 -42.54,-55.54 -58.36,-70.59 -79.44,-90.63 -71.73,-193.72 -125.74,-295.29 -16.19,-30.45 -95.39,-110.8 -91.02,-141.79 9,-51.66 96.43,-53.86 120.85,-105.9 9.77,-20.85 -1.29,-51.44 8.6,-67.12 4.9,-10.42 29.83,-41.92 24.69,-41.8 14.4,-41.51 23.78,-77.78 11.95,-139.21 -7.9,-36.2 -19.61,-68.81 -33.75,-99.43 28.6,28.97 84.79,67.39 152.58,221.23 37.5,85.12 306.69,227.71 217.8,662.55 0,0 57.31,-28.97 153.31,-19.67 72.95,7.07 148.79,23.67 163.86,70.5 13.93,43.4 -117.45,130.49 -215.58,123.75" /><path
         id="path104"
         style="fill:#a6abb2;fill-opacity:1;fill-rule:nonzero;stroke:none"
         d="m 2519.41,3016.3 c 9.12,15.3 60.5,68.95 81.63,57.16 21.12,-11.76 -8.84,-119.61 -30.13,-125.21 -21.29,-5.61 -65.23,45.03 -51.5,68.05" /><path
         id="path106"
         style="fill:#a6abb2;fill-opacity:1;fill-rule:nonzero;stroke:none"
         d="m 2234.61,3016.79 c 0,0 38.67,15.17 30.75,41.07 -7.91,25.88 -36.03,56.44 -54.25,45.83 -18.18,-10.64 15.18,-74.79 23.5,-86.9" /><path
         id="path108"
         style="fill:#d9dadf;fill-opacity:1;fill-rule:nonzero;stroke:none"
         d="M 4840.98,1286.22 4789.4,854.59 c 0,0 -212.28,-88.125 -420.36,-0.43 l -52.56,437.21 524.5,-5.15" /><path
         id="path110"
         style="fill:#d9dadf;fill-opacity:1;fill-rule:nonzero;stroke:none"
         d="m 4299.94,1288.02 c 0,-25 125.03,-45.25 279.28,-45.25 154.24,0 279.28,20.25 279.28,45.25 0,24.97 -120.39,37.55 -274.62,37.55 -154.23,0 -283.94,-12.58 -283.94,-37.55" /><path
         id="path112"
         style="fill:#9aa0a7;fill-opacity:1;fill-rule:nonzero;stroke:none"
         d="m 4792.5,1285.81 c -43.81,-6.38 -129.93,-6.55 -196.11,-7.16 -87.11,-0.82 -181.14,-0.72 -224.23,8.47 -46.44,21.71 469.8,20.28 420.34,-1.31" /><path
         id="path114"
         style="fill:#815c49;fill-opacity:1;fill-rule:nonzero;stroke:none"
         d="m 5384.58,907.098 c 0,0 -78.63,-240.274 -30.58,-266.493 48.04,-26.21 113.58,209.727 113.58,244.676 0,34.934 -83,21.817 -83,21.817" /><path
         id="path116"
         style="fill:#815c49;fill-opacity:1;fill-rule:nonzero;stroke:none"
         d="m 5910.73,929.707 c 0,0 31.16,-250.898 85.79,-254.172 54.62,-3.238 13.49,238.117 -1.4,269.758 -14.87,31.602 -84.39,-15.586 -84.39,-15.586" /><path
         id="path118"
         style="fill:#815c49;fill-opacity:1;fill-rule:nonzero;stroke:none"
         d="m 5394.93,757.383 c -30.41,26.445 249.01,0 275.21,-17.481 26.23,-17.48 -174.75,-69.894 -275.21,17.481" /><path
         id="path120"
         style="fill:#815c49;fill-opacity:1;fill-rule:nonzero;stroke:none"
         d="m 5721.52,735.359 c -37.04,15.782 236.96,76.543 267.27,67.969 30.33,-8.562 -144.79,-120.242 -267.27,-67.969" /><path
         id="path122"
         style="fill:#815c49;fill-opacity:1;fill-rule:nonzero;stroke:none"
         d="m 5642.82,833.281 c 0,0 -14.82,-252.394 38.31,-265.48 53.15,-13.113 56.43,231.703 47.53,265.5 -8.9,33.808 -85.84,-0.02 -85.84,-0.02" /><path
         id="path124"
         style="fill:#815c49;fill-opacity:1;fill-rule:nonzero;stroke:none"
         d="m 5324.82,1002.26 c 0,0 -29.79,-62.397 -16.68,-97.338 13.11,-34.953 226.98,-93.742 370.75,-82.031 221.64,18.066 378.58,77.277 382.95,120.964 4.35,43.711 -15.98,88.755 -15.98,88.755 l -721.04,-30.35" /><path
         id="path126"
         style="fill:#f4ca9d;fill-opacity:1;fill-rule:nonzero;stroke:none"
         d="m 5153.73,2433.72 c 0,0 -6.57,-321.25 119.72,-332.97 126.28,-11.69 122.82,201.31 122.82,201.31 l -242.54,131.66" /><path
         id="path128"
         style="fill:#815c49;fill-opacity:1;fill-rule:nonzero;stroke:none"
         d="m 5653.14,2681.43 c -185.18,113.38 -323.26,-43.47 -491.26,-61.73 -61.28,-6.65 -88.01,-72.84 -73.07,-136.04 13.3,-56.36 65.51,-110.85 65.51,-110.85 0,0 83.86,-173.34 143.58,-239.33 59.71,-66.01 445.99,-74.8 471.12,10.06 25.16,84.86 -74.22,51.94 -20.15,209.13 32.85,95.45 -6.25,273.98 -95.73,328.76" /><path
         id="path130"
         style="fill:#f4ca9d;fill-opacity:1;fill-rule:nonzero;stroke:none"
         d="m 4758.07,1472.94 c 0,0 -31.42,-1.15 -34.4,29.57 -2.99,30.71 -79.85,56.11 -110.13,39.99 -2.79,-6.26 4.9,-22.54 -2.08,-22.27 -51.44,2.09 -44.9,16.24 -94.56,0.73 -22.25,-6.97 -29.34,-39.6 2.79,-40.35 0,0 -32.68,-16.01 -0.71,-38.24 0,0 -12.5,-15.29 12.52,-30.58 -7.65,-17.39 0.31,-31.35 19.46,-37.54 51.44,-16.71 263.92,-47.75 207.11,98.69" /><path
         id="path132"
         style="fill:#262121;fill-opacity:1;fill-rule:nonzero;stroke:none"
         d="m 5251.29,920.574 c -95.29,32.813 -194.58,27.219 -288.31,2.168 13.04,-15.535 40.28,-38.008 45.2,-43.457 0,0 -144.53,-22.812 -128.34,-60.574 24.98,-58.34 337.78,-113.262 400.47,-47.293 21.68,22.809 6.08,77.984 -29.02,149.156" /><path
         id="path134"
         style="fill:#3a4041;fill-opacity:1;fill-rule:nonzero;stroke:none"
         d="m 4897.6,1527.93 237.2,-145.22 c 0,0 146.2,-333.75 288.72,-457.573 60.68,-44.504 390.66,-94.836 667.52,117.333 0,0 -72.83,72.81 -125.42,234.62 -52.58,161.84 3.03,819.07 -194.18,859.02 -243.69,49.36 -423.44,-22.93 -517.83,-13.48 -69.51,6.94 -96.98,0.87 -186.1,-52.6 -60.67,-36.42 -40.45,-254.87 -169.91,-542.1" /><path
         id="path136"
         style="fill:#202322;fill-opacity:1;fill-rule:nonzero;stroke:none"
         d="m 5124.15,2009.34 c 200.39,-141 60.41,-418.13 -1.6,-619.13 l 12.25,-7.5 c 0,0 2.49,-5.67 7.09,-15.71 28.79,73.41 71.57,199.58 83.4,282.3 24.27,137.54 52.6,295.32 -101.14,360.04" /><path
         id="path138"
         style="fill:#2d3232;fill-opacity:1;fill-rule:nonzero;stroke:none"
         d="m 5176.37,1403.54 c -155.17,122.65 -338.93,373.42 -551.16,239 -57.67,-36.5 99.79,-358.68 269.7,-601.42 50.13,-84.393 59.34,-156.452 59.34,-156.452 0,0 62.02,-29.648 177.98,-24.277 115.98,5.41 148.36,40.476 148.36,40.476 l -37.77,70.129 c 0,0 5.39,-10.793 156.43,-24.277 -2.96,3.691 -53.76,82.491 -56.63,86.301 -96.08,140.43 -51.86,253.89 -166.25,370.52" /><path
         id="path140"
         style="fill:#262121;fill-opacity:1;fill-rule:nonzero;stroke:none"
         d="m 5313.01,955.945 c -234.7,68.975 -352.52,297.275 -496.32,478.935 -24.27,32.35 -48.55,72.82 -105.19,72.82 48.55,-8.1 72.82,-56.63 105.19,-88.99 127.42,-181.07 243.8,-367.59 431.9,-458.437 l -5.77,10.723 c 0,0 3.16,-6.199 70.19,-15.051" /><path
         id="path142"
         style="fill:#5098bd;fill-opacity:1;fill-rule:nonzero;stroke:none"
         d="m 5654.39,2171.54 c -0.04,0 -0.09,0.06 -0.09,0.06 -0.87,0 -0.74,-0.02 0.09,-0.06" /><path
         id="path144"
         style="fill:#ccced4;fill-opacity:1;fill-rule:nonzero;stroke:none"
         d="m 3373.44,1066.42 51.58,-431.662 c 0,0 239.04,-87.699 447.12,0 l 25.79,436.812 -524.49,-5.15" /><path
         id="path146"
         style="fill:#ccced4;fill-opacity:1;fill-rule:nonzero;stroke:none"
         d="m 3914.48,1068.21 c 0,-24.98 -125.04,-45.22 -279.27,-45.22 -154.23,0 -279.29,20.24 -279.29,45.22 0,24.97 125.06,45.23 279.29,45.23 154.23,0 279.27,-20.26 279.27,-45.23" /><path
         id="path148"
         style="fill:#3d8a3f;fill-opacity:1;fill-rule:nonzero;stroke:none"
         d="m 3538.1,1041.37 c 0,0 -18.24,115.23 -59.96,159.74 0,0 80.65,26.42 152.97,43.1 0,0 27.1,-140.62 41.01,-210.14 0,0 -61.27,-6.64 -134.02,7.3" /><path
         id="path150"
         style="fill:#6fab70;fill-opacity:1;fill-rule:nonzero;stroke:none"
         d="m 3619.55,1222.04 c -66.07,-3.27 -119.86,-29.54 -120.35,-29.65 -0.33,-0.09 -0.61,-0.31 -0.73,-0.63 -0.13,-0.31 -0.1,-0.67 0.08,-0.95 41.7,-64.4 68.06,-136.92 68.27,-137.79 0.13,-0.54 0.71,-0.88 1.27,-0.77 0.42,0.11 0.71,0.45 0.78,0.86 0.02,0.13 0.02,0.27 -0.01,0.41 -0.23,0.87 -26.41,72.59 -67.77,137.16 6.88,1.55 57.13,26.16 117.78,29.21 2.76,-8.13 32.56,-124.25 35.01,-176.02 0.01,-0.57 0.51,-1.02 1.08,-0.97 0.59,0 1.02,0.5 1,1.08 -2.54,53.47 -34.91,175.98 -35.39,177.36 -0.13,0.43 -0.56,0.72 -1.02,0.7" /><path
         id="path152"
         style="fill:#6fab70;fill-opacity:1;fill-rule:nonzero;stroke:none"
         d="m 3597.31,1057.18 c -19.03,-3.15 -35.92,3.03 -37.7,13.86 -1.79,10.78 12.18,22.09 31.2,25.26 19.03,3.15 35.9,-3.02 37.7,-13.81 1.8,-10.8 -12.16,-22.14 -31.2,-25.31" /><path
         id="path154"
         style="fill:#559e52;fill-opacity:1;fill-rule:nonzero;stroke:none"
         d="m 3749.55,1042.56 c 0,0 24.77,97.35 66.5,141.86 0,0 -68.14,27.81 -140.44,44.51 0,0 -42.77,-126.91 -56.68,-196.43 0,0 57.88,-3.88 130.62,10.06" /><path
         id="path156"
         style="fill:#a4c8a5;fill-opacity:1;fill-rule:nonzero;stroke:none"
         d="m 3797.97,1173.99 c -0.12,0.31 -0.38,0.56 -0.71,0.66 -0.48,0.11 -48.67,31.08 -114.62,36.26 -0.46,0.04 -0.9,-0.26 -1.06,-0.69 -0.44,-1.19 -35.82,-116.33 -47.94,-177.86 l 2.15,0.16 c 11.78,59.38 44.85,169.18 47.46,176.24 60.53,-4.81 105.23,-34.03 112.06,-35.78 -36.01,-52.84 -54.26,-113.53 -61.03,-135.26 l 2.29,0.37 c 7.12,22.76 25.45,82.93 61.28,134.96 0.2,0.24 0.25,0.6 0.12,0.94" /><path
         id="path158"
         style="fill:#a4c8a5;fill-opacity:1;fill-rule:nonzero;stroke:none"
         d="m 3682.94,1040.69 c -18.83,4.19 -32.18,16.23 -29.8,26.94 2.38,10.67 19.56,15.94 38.38,11.77 18.81,-4.19 32.18,-16.21 29.81,-26.88 -2.37,-10.7 -19.56,-15.99 -38.39,-11.83" /><path
         id="path160"
         style="fill:#6cb26a;fill-opacity:1;fill-rule:nonzero;stroke:none"
         d="m 3467.44,1043.93 c 0,0 -47.71,97.39 -89.43,141.89 0,0 63.95,30.59 136.28,47.27 0,0 71.96,-130.02 85.85,-199.54 0,0 -68.29,-1.05 -132.7,10.38" /><path
         id="path162"
         style="fill:#b0d3b1;fill-opacity:1;fill-rule:nonzero;stroke:none"
         d="m 3507.82,1217.44 c -64.71,-13.78 -111.67,-33.24 -112.13,-33.45 -0.32,-0.13 -0.55,-0.4 -0.61,-0.72 -0.08,-0.33 0.02,-0.69 0.24,-0.95 51.43,-56.91 87.07,-139.33 87.41,-140.14 0.24,-0.54 0.84,-0.79 1.37,-0.57 0.4,0.19 0.63,0.57 0.63,0.98 0,0.12 -0.01,0.26 -0.07,0.4 -0.36,0.83 -35.7,82.49 -86.83,139.63 6.55,2.63 50.28,19.89 109.66,32.58 4.03,-7.58 68.12,-129.08 78.79,-179.77 0.11,-0.59 0.66,-0.93 1.23,-0.81 0.58,0.11 0.94,0.67 0.81,1.21 -11.03,52.41 -78.68,179.78 -79.37,181.06 -0.22,0.43 -0.69,0.64 -1.13,0.55" /><path
         id="path164"
         style="fill:#b0d3b1;fill-opacity:1;fill-rule:nonzero;stroke:none"
         d="m 3525.04,1058.37 c -18.56,-5.24 -36.02,-0.93 -38.99,9.62 -2.96,10.52 9.67,23.28 28.24,28.53 18.57,5.21 36.03,0.93 38.99,-9.61 2.98,-10.52 -9.69,-23.34 -28.24,-28.54" /><path
         id="path166"
         style="fill:#6cb26a;fill-opacity:1;fill-rule:nonzero;stroke:none"
         d="m 3837.17,1043.93 c 0,0 47.71,97.39 89.43,141.89 0,0 -63.97,30.59 -136.28,47.27 0,0 -69.52,-127.93 -83.43,-197.46 0,0 65.36,0 130.28,8.3" /><path
         id="path168"
         style="fill:#b0d3b1;fill-opacity:1;fill-rule:nonzero;stroke:none"
         d="m 3795.19,1217.1 c 64.58,-14.25 111.57,-37.3 112.02,-37.5 0.33,-0.14 0.54,-0.4 0.62,-0.74 0.07,-0.34 -0.02,-0.68 -0.24,-0.93 -51.87,-56.51 -81.55,-133.36 -81.9,-134.17 -0.24,-0.55 -0.85,-0.77 -1.38,-0.55 -0.38,0.19 -0.63,0.57 -0.62,0.97 0,0.14 0.01,0.27 0.08,0.41 0.37,0.83 29.73,76.89 81.29,133.63 -6.52,2.71 -50.27,23.52 -109.57,36.67 -4.06,-7.57 -62.34,-126.49 -73.39,-177.12 -0.13,-0.56 -0.67,-0.91 -1.25,-0.79 -0.57,0.12 -0.92,0.68 -0.79,1.24 11.42,52.29 73.29,177.08 73.98,178.36 0.22,0.41 0.69,0.63 1.15,0.52" /><path
         id="path170"
         style="fill:#b0d3b1;fill-opacity:1;fill-rule:nonzero;stroke:none"
         d="m 3779.62,1057.51 c -18.03,6.85 -29.49,20.7 -25.6,30.94 3.88,10.23 21.64,12.97 39.66,6.13 18.04,-6.86 29.52,-20.69 25.64,-30.92 -3.89,-10.24 -21.66,-12.99 -39.7,-6.15" /><path
         id="path172"
         style="fill:#d9dadf;fill-opacity:1;fill-rule:nonzero;stroke:none"
         d="m 3691.89,846.699 51.57,-431.652 c 0,0 239.04,-87.703 447.13,0 l 25.79,436.808 -524.49,-5.156" /><path
         id="path174"
         style="fill:#d9dadf;fill-opacity:1;fill-rule:nonzero;stroke:none"
         d="m 4232.93,848.508 c 0,-24.985 -125.04,-45.246 -279.28,-45.246 -154.22,0 -279.29,20.261 -279.29,45.246 0,24.969 125.07,45.211 279.29,45.211 154.24,0 279.28,-20.242 279.28,-45.211" /><path
         id="path176"
         style="fill:#3d8a3f;fill-opacity:1;fill-rule:nonzero;stroke:none"
         d="m 3856.55,821.66 c 0,0 -18.25,115.242 -59.98,159.735 0,0 80.65,26.415 152.97,43.105 0,0 27.12,-140.613 41.03,-210.164 0,0 -61.28,-6.641 -134.02,7.324" /><path
         id="path178"
         style="fill:#6fab70;fill-opacity:1;fill-rule:nonzero;stroke:none"
         d="m 3938,1002.32 c -66.07,-3.289 -119.86,-29.527 -120.36,-29.644 -0.34,-0.086 -0.6,-0.313 -0.73,-0.645 -0.12,-0.293 -0.09,-0.676 0.09,-0.945 41.71,-64.398 68.06,-136.906 68.27,-137.785 0.13,-0.567 0.71,-0.899 1.27,-0.762 0.41,0.106 0.71,0.449 0.77,0.848 0.03,0.136 0.03,0.273 -0.01,0.41 -0.22,0.879 -26.39,72.598 -67.77,137.18 6.88,1.543 57.13,26.113 117.78,29.203 2.76,-8.16 32.55,-124.254 35.01,-176.032 0.02,-0.585 0.52,-1.015 1.1,-0.984 0.58,0.02 1.02,0.516 0.98,1.082 -2.54,53.488 -34.89,175.974 -35.38,177.354 -0.14,0.45 -0.57,0.74 -1.02,0.72" /><path
         id="path180"
         style="fill:#6fab70;fill-opacity:1;fill-rule:nonzero;stroke:none"
         d="m 3915.77,837.469 c -19.04,-3.153 -35.93,3.039 -37.71,13.828 -1.79,10.801 12.17,22.109 31.2,25.285 19.01,3.152 35.9,-3.019 37.7,-13.801 1.8,-10.808 -12.17,-22.148 -31.19,-25.312" /><path
         id="path182"
         style="fill:#559e52;fill-opacity:1;fill-rule:nonzero;stroke:none"
         d="m 4068,822.82 c 0,0 24.77,97.395 66.49,141.887 0,0 -68.13,27.813 -140.46,44.503 0,0 -42.74,-126.905 -56.65,-196.429 0,0 57.87,-3.875 130.62,10.039" /><path
         id="path184"
         style="fill:#a4c8a5;fill-opacity:1;fill-rule:nonzero;stroke:none"
         d="m 4116.42,954.285 c -0.11,0.293 -0.37,0.539 -0.73,0.637 -0.46,0.125 -48.66,31.094 -114.58,36.269 -0.48,0.02 -0.92,-0.226 -1.09,-0.675 -0.44,-1.2 -35.81,-116.368 -47.92,-177.871 l 2.13,0.136 c 11.79,59.387 44.85,169.199 47.47,176.242 60.53,-4.785 105.24,-33.996 112.06,-35.753 -36.01,-52.809 -54.27,-113.536 -61.05,-135.262 l 2.31,0.34 c 7.12,22.785 25.45,82.968 61.27,134.972 0.21,0.266 0.25,0.625 0.13,0.965" /><path
         id="path186"
         style="fill:#a4c8a5;fill-opacity:1;fill-rule:nonzero;stroke:none"
         d="m 4001.39,820.984 c -18.83,4.184 -32.18,16.243 -29.81,26.907 2.38,10.695 19.56,15.964 38.38,11.777 18.83,-4.172 32.19,-16.191 29.81,-26.887 -2.37,-10.703 -19.56,-15.965 -38.38,-11.797" /><path
         id="path188"
         style="fill:#6cb26a;fill-opacity:1;fill-rule:nonzero;stroke:none"
         d="m 3785.89,824.219 c 0,0 -47.71,97.39 -89.43,141.883 0,0 63.95,30.586 136.27,47.278 0,0 71.98,-130.04 85.86,-199.564 0,0 -68.3,-1.035 -132.7,10.403" /><path
         id="path190"
         style="fill:#b0d3b1;fill-opacity:1;fill-rule:nonzero;stroke:none"
         d="m 3826.27,997.723 c -64.71,-13.778 -111.67,-33.243 -112.14,-33.446 -0.31,-0.129 -0.54,-0.398 -0.61,-0.742 -0.08,-0.312 0.02,-0.695 0.24,-0.918 51.43,-56.914 87.07,-139.347 87.42,-140.156 0.23,-0.539 0.84,-0.781 1.37,-0.559 0.4,0.157 0.63,0.559 0.63,0.938 0,0.168 -0.02,0.293 -0.07,0.43 -0.36,0.839 -35.69,82.5 -86.83,139.64 6.54,2.637 50.27,19.883 109.66,32.586 4.02,-7.586 68.09,-129.09 78.79,-179.781 0.11,-0.57 0.67,-0.949 1.23,-0.813 0.56,0.106 0.93,0.653 0.81,1.239 -11.05,52.367 -78.7,179.757 -79.38,181.047 -0.21,0.402 -0.68,0.625 -1.12,0.535" /><path
         id="path192"
         style="fill:#b0d3b1;fill-opacity:1;fill-rule:nonzero;stroke:none"
         d="m 3843.48,838.652 c -18.56,-5.234 -36.01,-0.91 -38.99,9.602 -2.96,10.535 9.69,23.316 28.24,28.531 18.58,5.227 36.03,0.949 39,-9.59 2.98,-10.547 -9.69,-23.34 -28.25,-28.543" /><path
         id="path194"
         style="fill:#6cb26a;fill-opacity:1;fill-rule:nonzero;stroke:none"
         d="m 4155.61,824.219 c 0,0 47.72,97.39 89.43,141.883 0,0 -63.97,30.586 -136.26,47.278 0,0 -69.54,-127.942 -83.44,-197.462 0,0 65.35,0 130.27,8.301" /><path
         id="path196"
         style="fill:#b0d3b1;fill-opacity:1;fill-rule:nonzero;stroke:none"
         d="m 4113.63,997.383 c 64.59,-14.25 111.58,-37.293 112.03,-37.5 0.32,-0.125 0.55,-0.418 0.62,-0.742 0.08,-0.332 -0.01,-0.696 -0.24,-0.918 -51.87,-56.524 -81.56,-133.371 -81.91,-134.18 -0.24,-0.547 -0.85,-0.773 -1.36,-0.547 -0.41,0.184 -0.64,0.547 -0.63,0.977 0,0.125 0.01,0.261 0.08,0.398 0.36,0.832 29.72,76.895 81.29,133.645 -6.53,2.703 -50.28,23.488 -109.57,36.64 -4.08,-7.558 -62.34,-126.476 -73.39,-177.082 -0.12,-0.586 -0.69,-0.918 -1.25,-0.808 -0.56,0.117 -0.92,0.672 -0.79,1.242 11.41,52.293 73.29,177.078 73.98,178.355 0.22,0.41 0.69,0.617 1.14,0.52" /><path
         id="path198"
         style="fill:#b0d3b1;fill-opacity:1;fill-rule:nonzero;stroke:none"
         d="m 4098.07,837.813 c -18.04,6.835 -29.51,20.683 -25.61,30.917 3.89,10.215 21.63,12.969 39.67,6.114 18.03,-6.836 29.52,-20.664 25.64,-30.891 -3.9,-10.242 -21.66,-12.996 -39.7,-6.14" /><path
         id="path200"
         style="fill:#e7e8ec;fill-opacity:1;fill-rule:nonzero;stroke:none"
         d="m 4142.41,571.379 51.57,-431.652 c 0,0 239.05,-87.7153 447.13,0 l 25.79,436.816 -524.49,-5.164" /><path
         id="path202"
         style="fill:#e7e8ec;fill-opacity:1;fill-rule:nonzero;stroke:none"
         d="m 4683.45,573.184 c 0,-24.969 -125.03,-45.246 -279.28,-45.246 -154.23,0 -279.27,20.277 -279.27,45.246 0,24.98 125.04,45.222 279.27,45.222 154.25,0 279.28,-20.242 279.28,-45.222" /><path
         id="path204"
         style="fill:#3d8a3f;fill-opacity:1;fill-rule:nonzero;stroke:none"
         d="m 4307.07,546.34 c 0,0 -18.24,115.242 -59.98,159.734 0,0 80.66,26.426 152.98,43.114 0,0 27.12,-140.625 41.02,-210.176 0,0 -61.29,-6.61 -134.02,7.328" /><path
         id="path206"
         style="fill:#6fab70;fill-opacity:1;fill-rule:nonzero;stroke:none"
         d="m 4388.52,726.98 c -66.07,-3.269 -119.86,-29.531 -120.36,-29.636 -0.34,-0.071 -0.59,-0.293 -0.72,-0.606 -0.14,-0.343 -0.1,-0.703 0.09,-0.945 41.7,-64.414 68.04,-136.938 68.26,-137.816 0.14,-0.567 0.71,-0.899 1.27,-0.762 0.42,0.109 0.71,0.453 0.78,0.851 0.03,0.137 0.01,0.274 -0.02,0.411 -0.21,0.878 -26.38,72.609 -67.76,137.148 6.87,1.582 57.13,26.141 117.77,29.238 2.78,-8.152 32.56,-124.269 35.02,-176.023 0.02,-0.586 0.51,-1.02 1.1,-0.988 0.57,0.019 1.01,0.496 0.97,1.082 -2.53,53.488 -34.89,175.968 -35.37,177.343 -0.15,0.45 -0.57,0.743 -1.03,0.703" /><path
         id="path208"
         style="fill:#6fab70;fill-opacity:1;fill-rule:nonzero;stroke:none"
         d="m 4366.29,562.148 c -19.03,-3.156 -35.92,3.047 -37.7,13.829 -1.8,10.808 12.17,22.117 31.18,25.273 19.04,3.152 35.91,-2.996 37.71,-13.781 1.8,-10.821 -12.17,-22.149 -31.19,-25.321" /><path
         id="path210"
         style="fill:#559e52;fill-opacity:1;fill-rule:nonzero;stroke:none"
         d="m 4518.52,547.508 c 0,0 24.78,97.383 66.49,141.875 0,0 -68.12,27.824 -140.45,44.512 0,0 -42.74,-126.915 -56.66,-196.426 0,0 57.87,-3.895 130.62,10.039" /><path
         id="path212"
         style="fill:#a4c8a5;fill-opacity:1;fill-rule:nonzero;stroke:none"
         d="m 4566.93,678.965 c -0.11,0.293 -0.37,0.566 -0.71,0.633 -0.47,0.129 -48.66,31.093 -114.6,36.281 -0.47,0.019 -0.92,-0.246 -1.07,-0.676 -0.44,-1.199 -35.82,-116.348 -47.92,-177.867 l 2.13,0.152 c 11.79,59.367 44.85,169.172 47.46,176.223 60.53,-4.793 105.24,-34.004 112.06,-35.762 -36.02,-52.832 -54.27,-113.527 -61.03,-135.265 l 2.29,0.343 c 7.13,22.793 25.44,82.969 61.28,134.969 0.19,0.266 0.24,0.625 0.11,0.969" /><path
         id="path214"
         style="fill:#a4c8a5;fill-opacity:1;fill-rule:nonzero;stroke:none"
         d="m 4451.91,545.664 c -18.84,4.172 -32.18,16.238 -29.8,26.902 2.37,10.704 19.56,15.969 38.38,11.817 18.82,-4.215 32.18,-16.238 29.8,-26.922 -2.35,-10.695 -19.55,-15.969 -38.38,-11.797" /><path
         id="path216"
         style="fill:#6cb26a;fill-opacity:1;fill-rule:nonzero;stroke:none"
         d="m 4236.41,548.906 c 0,0 -47.71,97.352 -89.44,141.856 0,0 63.97,30.617 136.28,47.304 0,0 71.98,-130.019 85.87,-199.57 0,0 -68.3,-1.027 -132.71,10.41" /><path
         id="path218"
         style="fill:#b0d3b1;fill-opacity:1;fill-rule:nonzero;stroke:none"
         d="m 4276.8,722.383 c -64.72,-13.762 -111.68,-33.242 -112.14,-33.43 -0.31,-0.125 -0.55,-0.398 -0.63,-0.738 -0.07,-0.324 0.03,-0.668 0.26,-0.91 51.42,-56.914 87.06,-139.344 87.42,-140.176 0.22,-0.52 0.84,-0.762 1.36,-0.539 0.4,0.156 0.65,0.539 0.65,0.949 0,0.156 -0.04,0.281 -0.09,0.422 -0.36,0.809 -35.69,82.469 -86.82,139.637 6.54,2.625 50.26,19.871 109.65,32.586 4.02,-7.594 68.1,-129.098 78.79,-179.813 0.12,-0.566 0.67,-0.93 1.23,-0.793 0.58,0.11 0.94,0.656 0.82,1.223 -11.05,52.383 -78.69,179.785 -79.38,181.062 -0.22,0.403 -0.67,0.625 -1.12,0.52" /><path
         id="path220"
         style="fill:#b0d3b1;fill-opacity:1;fill-rule:nonzero;stroke:none"
         d="m 4294,563.32 c -18.55,-5.226 -36.01,-0.898 -38.97,9.61 -2.98,10.547 9.67,23.32 28.23,28.543 18.58,5.215 36.03,0.949 38.99,-9.598 2.98,-10.535 -9.68,-23.328 -28.25,-28.555" /><path
         id="path222"
         style="fill:#6cb26a;fill-opacity:1;fill-rule:nonzero;stroke:none"
         d="m 4606.13,548.906 c 0,0 47.72,97.352 89.43,141.856 0,0 -63.96,30.617 -136.26,47.304 0,0 -69.53,-127.949 -83.44,-197.472 0,0 65.35,0 130.27,8.312" /><path
         id="path224"
         style="fill:#b0d3b1;fill-opacity:1;fill-rule:nonzero;stroke:none"
         d="m 4564.15,722.059 c 64.6,-14.246 111.57,-37.286 112.04,-37.481 0.33,-0.137 0.54,-0.406 0.62,-0.75 0.07,-0.332 -0.01,-0.695 -0.26,-0.918 -51.85,-56.531 -81.53,-133.367 -81.9,-134.18 -0.24,-0.546 -0.83,-0.769 -1.37,-0.546 -0.38,0.164 -0.62,0.546 -0.62,0.976 0,0.106 0.03,0.262 0.07,0.383 0.38,0.828 29.74,76.902 81.29,133.66 -6.51,2.703 -50.27,23.477 -109.56,36.641 -4.06,-7.571 -62.34,-126.485 -73.4,-177.11 -0.1,-0.566 -0.66,-0.929 -1.24,-0.793 -0.56,0.118 -0.91,0.676 -0.78,1.243 11.41,52.293 73.27,177.089 73.98,178.359 0.21,0.41 0.68,0.613 1.13,0.516" /><path
         id="path226"
         style="fill:#b0d3b1;fill-opacity:1;fill-rule:nonzero;stroke:none"
         d="m 4548.59,562.488 c -18.02,6.848 -29.5,20.696 -25.61,30.918 3.9,10.227 21.65,12.973 39.66,6.125 18.04,-6.847 29.54,-20.676 25.65,-30.918 -3.88,-10.226 -21.67,-12.98 -39.7,-6.125" /><path
         id="path228"
         style="fill:#d9dadf;fill-opacity:1;fill-rule:nonzero;stroke:none"
         d="m 3454.8,709.051 -51.58,-431.66 c 0,0 -239.04,-87.715 -447.12,0 l -25.79,436.82 524.49,-5.16" /><path
         id="path230"
         style="fill:#d9dadf;fill-opacity:1;fill-rule:nonzero;stroke:none"
         d="m 2913.76,710.848 c 0,-24.969 125.04,-45.235 279.28,-45.235 154.23,0 279.28,20.266 279.28,45.235 0,24.961 -125.05,45.226 -279.28,45.226 -154.24,0 -279.28,-20.265 -279.28,-45.226" /><path
         id="path232"
         style="fill:#3d8a3f;fill-opacity:1;fill-rule:nonzero;stroke:none"
         d="m 3290.14,684.012 c 0,0 18.26,115.234 59.97,159.738 0,0 -80.65,26.418 -152.96,43.105 0,0 -27.12,-140.644 -41.02,-210.144 0,0 61.27,-6.664 134.01,7.301" /><path
         id="path234"
         style="fill:#6fab70;fill-opacity:1;fill-rule:nonzero;stroke:none"
         d="m 3208.7,864.648 c 66.07,-3.261 119.85,-29.519 120.34,-29.64 0.34,-0.059 0.61,-0.293 0.73,-0.606 0.13,-0.312 0.09,-0.691 -0.09,-0.964 -41.69,-64.387 -68.04,-136.934 -68.25,-137.786 -0.14,-0.562 -0.72,-0.894 -1.27,-0.769 -0.43,0.117 -0.73,0.449 -0.78,0.84 -0.02,0.156 -0.02,0.293 0.01,0.429 0.22,0.879 26.39,72.606 67.76,137.149 -6.88,1.582 -57.11,26.14 -117.77,29.226 -2.77,-8.125 -32.56,-124.265 -35.02,-176.015 -0.01,-0.586 -0.5,-1.016 -1.08,-0.996 -0.58,0.031 -1.02,0.5 -0.99,1.086 2.53,53.476 34.9,175.976 35.37,177.351 0.15,0.449 0.58,0.742 1.04,0.695" /><path
         id="path236"
         style="fill:#6fab70;fill-opacity:1;fill-rule:nonzero;stroke:none"
         d="m 3230.92,699.824 c 19.03,-3.152 35.93,3.035 37.71,13.817 1.79,10.812 -12.17,22.121 -31.19,25.265 -19.03,3.164 -35.91,-2.98 -37.71,-13.777 -1.8,-10.805 12.16,-22.133 31.19,-25.305" /><path
         id="path238"
         style="fill:#559e52;fill-opacity:1;fill-rule:nonzero;stroke:none"
         d="m 3078.69,685.184 c 0,0 -24.77,97.375 -66.49,141.875 0,0 68.14,27.824 140.44,44.511 0,0 42.77,-126.914 56.68,-196.433 0,0 -57.88,-3.899 -130.63,10.047" /><path
         id="path240"
         style="fill:#a4c8a5;fill-opacity:1;fill-rule:nonzero;stroke:none"
         d="m 3030.27,816.609 c 0.11,0.325 0.37,0.586 0.71,0.657 0.48,0.136 48.67,31.101 114.62,36.289 0.45,0.019 0.9,-0.254 1.06,-0.684 0.45,-1.191 35.82,-116.359 47.93,-177.871 l -2.13,0.137 c -11.8,59.394 -44.86,169.199 -47.47,176.25 -60.54,-4.824 -105.23,-34.004 -112.06,-35.793 36.02,-52.813 54.27,-113.496 61.04,-135.235 l -2.3,0.344 c -7.12,22.793 -25.45,82.957 -61.28,134.961 -0.2,0.274 -0.25,0.633 -0.12,0.945" /><path
         id="path242"
         style="fill:#a4c8a5;fill-opacity:1;fill-rule:nonzero;stroke:none"
         d="m 3145.3,683.34 c 18.84,4.16 32.18,16.23 29.81,26.902 -2.38,10.703 -19.56,15.949 -38.37,11.778 -18.83,-4.18 -32.19,-16.219 -29.82,-26.883 2.36,-10.672 19.56,-15.965 38.38,-11.797" /><path
         id="path244"
         style="fill:#6cb26a;fill-opacity:1;fill-rule:nonzero;stroke:none"
         d="m 3360.8,686.582 c 0,0 47.72,97.371 89.43,141.856 0,0 -63.96,30.605 -136.27,47.285 0,0 -71.97,-130.032 -85.87,-199.551 0,0 68.32,-1.035 132.71,10.41" /><path
         id="path246"
         style="fill:#b0d3b1;fill-opacity:1;fill-rule:nonzero;stroke:none"
         d="m 3320.43,860.047 c 64.69,-13.75 111.66,-33.211 112.12,-33.414 0.32,-0.141 0.55,-0.403 0.63,-0.746 0.06,-0.34 -0.03,-0.703 -0.25,-0.926 -51.43,-56.906 -87.07,-139.328 -87.43,-140.156 -0.23,-0.52 -0.83,-0.774 -1.36,-0.547 -0.41,0.156 -0.63,0.547 -0.63,0.965 0,0.117 0.03,0.273 0.08,0.39 0.36,0.832 35.68,82.492 86.82,139.621 -6.53,2.657 -50.27,19.895 -109.66,32.606 -4.01,-7.578 -68.11,-129.082 -78.79,-179.805 -0.11,-0.555 -0.67,-0.918 -1.23,-0.777 -0.57,0.105 -0.93,0.652 -0.81,1.207 11.04,52.383 78.69,179.789 79.38,181.066 0.21,0.41 0.68,0.637 1.13,0.516" /><path
         id="path248"
         style="fill:#b0d3b1;fill-opacity:1;fill-rule:nonzero;stroke:none"
         d="m 3303.2,700.996 c 18.58,-5.234 36.02,-0.906 38.99,9.609 2.97,10.547 -9.67,23.313 -28.24,28.536 -18.57,5.222 -36.02,0.937 -38.99,-9.59 -2.97,-10.539 9.69,-23.34 28.24,-28.555" /><path
         id="path250"
         style="fill:#6cb26a;fill-opacity:1;fill-rule:nonzero;stroke:none"
         d="m 2991.09,686.582 c 0,0 -47.72,97.371 -89.43,141.856 0,0 63.95,30.605 136.27,47.285 0,0 69.52,-127.93 83.43,-197.461 0,0 -65.35,0 -130.27,8.32" /><path
         id="path252"
         style="fill:#b0d3b1;fill-opacity:1;fill-rule:nonzero;stroke:none"
         d="m 3033.06,859.734 c -64.59,-14.257 -111.58,-37.293 -112.03,-37.5 -0.33,-0.136 -0.54,-0.418 -0.62,-0.73 -0.07,-0.344 0.02,-0.703 0.25,-0.93 51.86,-56.523 81.54,-133.367 81.9,-134.179 0.23,-0.536 0.84,-0.782 1.38,-0.555 0.38,0.176 0.62,0.555 0.62,0.984 0,0.117 -0.02,0.274 -0.09,0.383 -0.37,0.84 -29.73,76.914 -81.28,133.66 6.51,2.696 50.27,23.488 109.56,36.641 4.07,-7.567 62.34,-126.473 73.4,-177.098 0.12,-0.566 0.67,-0.93 1.25,-0.793 0.56,0.11 0.92,0.676 0.78,1.242 -11.42,52.293 -73.28,177.079 -73.98,178.36 -0.22,0.41 -0.69,0.605 -1.14,0.515" /><path
         id="path254"
         style="fill:#b0d3b1;fill-opacity:1;fill-rule:nonzero;stroke:none"
         d="m 3048.63,700.156 c 18.02,6.848 29.48,20.703 25.6,30.918 -3.89,10.223 -21.65,12.977 -39.66,6.133 -18.05,-6.848 -29.52,-20.676 -25.64,-30.93 3.88,-10.222 21.66,-12.968 39.7,-6.121" /><path
         id="path256"
         style="fill:#d9dadf;fill-opacity:1;fill-rule:nonzero;stroke:none"
         d="M 2578.77,834.18 2527.2,402.547 c 0,0 -239.05,-87.723 -447.13,0 l -25.79,436.808 524.49,-5.175" /><path
         id="path258"
         style="fill:#d9dadf;fill-opacity:1;fill-rule:nonzero;stroke:none"
         d="m 2037.73,836.008 c 0,-25 125.05,-45.254 279.29,-45.254 154.22,0 279.27,20.254 279.27,45.254 0,24.949 -125.05,45.211 -279.27,45.211 -154.24,0 -279.29,-20.262 -279.29,-45.211" /><path
         id="path260"
         style="fill:#3d8a3f;fill-opacity:1;fill-rule:nonzero;stroke:none"
         d="m 2414.12,809.133 c 0,0 18.24,115.262 59.96,159.746 0,0 -80.65,26.434 -152.96,43.121 0,0 -27.12,-140.633 -41.02,-210.156 0,0 61.27,-6.649 134.02,7.289" /><path
         id="path262"
         style="fill:#6fab70;fill-opacity:1;fill-rule:nonzero;stroke:none"
         d="m 2332.67,989.797 c 66.06,-3.266 119.86,-29.524 120.35,-29.641 0.34,-0.066 0.61,-0.312 0.73,-0.625 0.12,-0.32 0.1,-0.683 -0.09,-0.945 -41.7,-64.387 -68.06,-136.906 -68.27,-137.785 -0.13,-0.559 -0.7,-0.899 -1.26,-0.762 -0.42,0.09 -0.72,0.43 -0.78,0.828 -0.03,0.168 -0.01,0.293 0.01,0.43 0.23,0.871 26.4,72.582 67.78,137.148 -6.89,1.575 -57.14,26.153 -117.78,29.239 -2.77,-8.153 -32.57,-124.278 -35.02,-176.024 -0.02,-0.586 -0.51,-1.015 -1.08,-0.996 -0.59,0.02 -1.03,0.496 -0.99,1.082 2.53,53.469 34.89,175.988 35.37,177.344 0.14,0.453 0.57,0.723 1.03,0.707" /><path
         id="path264"
         style="fill:#6fab70;fill-opacity:1;fill-rule:nonzero;stroke:none"
         d="m 2354.9,824.961 c 19.03,-3.145 35.91,3.027 37.7,13.828 1.79,10.82 -12.17,22.098 -31.19,25.274 -19.03,3.152 -35.91,-3.016 -37.7,-13.801 -1.81,-10.821 12.16,-22.117 31.19,-25.301" /><path
         id="path266"
         style="fill:#559e52;fill-opacity:1;fill-rule:nonzero;stroke:none"
         d="m 2202.66,810.32 c 0,0 -24.77,97.383 -66.49,141.895 0,0 68.14,27.805 140.45,44.473 0,0 42.76,-126.875 56.67,-196.407 0,0 -57.88,-3.894 -130.63,10.039" /><path
         id="path268"
         style="fill:#a4c8a5;fill-opacity:1;fill-rule:nonzero;stroke:none"
         d="m 2154.24,941.758 c 0.12,0.312 0.39,0.566 0.72,0.652 0.47,0.137 48.67,31.098 114.61,36.281 0.47,0.028 0.91,-0.246 1.07,-0.695 0.43,-1.172 35.81,-116.348 47.93,-177.851 l -2.14,0.136 c -11.78,59.387 -44.85,169.199 -47.47,176.25 -60.53,-4.812 -105.23,-34.011 -112.06,-35.789 36.01,-52.804 54.28,-113.527 61.03,-135.265 l -2.29,0.363 c -7.12,22.793 -25.44,82.969 -61.28,134.969 -0.2,0.246 -0.24,0.636 -0.12,0.949" /><path
         id="path270"
         style="fill:#a4c8a5;fill-opacity:1;fill-rule:nonzero;stroke:none"
         d="m 2269.28,808.477 c 18.83,4.168 32.17,16.238 29.8,26.921 -2.37,10.696 -19.55,15.969 -38.37,11.778 -18.83,-4.199 -32.19,-16.219 -29.82,-26.895 2.37,-10.703 19.56,-15.965 38.39,-11.804" /><path
         id="path272"
         style="fill:#6cb26a;fill-opacity:1;fill-rule:nonzero;stroke:none"
         d="m 2484.77,811.727 c 0,0 47.71,97.355 89.44,141.859 0,0 -63.97,30.602 -136.28,47.294 0,0 -71.96,-130.032 -85.87,-199.564 0,0 68.31,-1.035 132.71,10.411" /><path
         id="path274"
         style="fill:#b0d3b1;fill-opacity:1;fill-rule:nonzero;stroke:none"
         d="m 2444.4,985.203 c 64.7,-13.758 111.66,-33.238 112.12,-33.418 0.32,-0.137 0.55,-0.43 0.62,-0.738 0.08,-0.344 -0.01,-0.707 -0.24,-0.93 -51.43,-56.933 -87.08,-139.336 -87.42,-140.176 -0.23,-0.519 -0.84,-0.761 -1.37,-0.539 -0.4,0.157 -0.63,0.539 -0.63,0.95 0,0.136 0.02,0.293 0.08,0.429 0.36,0.809 35.69,82.473 86.82,139.61 -6.54,2.656 -50.27,19.882 -109.65,32.586 -4.03,-7.594 -68.11,-129.071 -78.79,-179.786 -0.12,-0.562 -0.67,-0.925 -1.23,-0.808 -0.57,0.105 -0.94,0.672 -0.81,1.238 11.03,52.375 78.68,179.777 79.36,181.067 0.22,0.41 0.69,0.605 1.14,0.515" /><path
         id="path276"
         style="fill:#b0d3b1;fill-opacity:1;fill-rule:nonzero;stroke:none"
         d="m 2427.17,826.133 c 18.58,-5.215 36.03,-0.918 39,9.629 2.96,10.535 -9.68,23.301 -28.24,28.523 -18.57,5.235 -36.04,0.93 -38.99,-9.59 -2.98,-10.547 9.68,-23.328 28.23,-28.562" /><path
         id="path278"
         style="fill:#6cb26a;fill-opacity:1;fill-rule:nonzero;stroke:none"
         d="m 2115.06,811.727 c 0,0 -47.72,97.355 -89.45,141.859 0,0 63.98,30.602 136.28,47.294 0,0 69.54,-127.95 83.44,-197.462 0,0 -65.35,0 -130.27,8.309" /><path
         id="path280"
         style="fill:#b0d3b1;fill-opacity:1;fill-rule:nonzero;stroke:none"
         d="m 2157.03,984.891 c -64.6,-14.258 -111.57,-37.325 -112.02,-37.528 -0.33,-0.105 -0.55,-0.398 -0.62,-0.715 -0.07,-0.339 0.01,-0.703 0.25,-0.945 51.85,-56.515 81.54,-133.351 81.89,-134.18 0.24,-0.515 0.85,-0.742 1.38,-0.515 0.39,0.152 0.64,0.535 0.61,0.945 0,0.125 0,0.262 -0.07,0.399 -0.36,0.839 -29.74,76.906 -81.3,133.664 6.53,2.703 50.29,23.496 109.57,36.64 4.07,-7.566 62.33,-126.476 73.4,-177.109 0.12,-0.547 0.68,-0.91 1.25,-0.774 0.56,0.11 0.92,0.665 0.79,1.204 -11.43,52.316 -73.29,177.109 -73.98,178.367 -0.23,0.429 -0.7,0.636 -1.15,0.547" /><path
         id="path282"
         style="fill:#b0d3b1;fill-opacity:1;fill-rule:nonzero;stroke:none"
         d="m 2172.6,825.281 c 18.03,6.848 29.49,20.727 25.6,30.938 -3.88,10.234 -21.65,12.98 -39.66,6.133 -18.04,-6.856 -29.52,-20.672 -25.63,-30.918 3.88,-10.223 21.65,-12.996 39.69,-6.153" /><path
         id="path284"
         style="fill:#d9dadf;fill-opacity:1;fill-rule:nonzero;stroke:none"
         d="m 1053.31,898.184 -51.57,-431.661 c 0,0 -239.049,-87.714 -447.127,0 l -25.804,436.817 524.501,-5.156" /><path
         id="path286"
         style="fill:#d9dadf;fill-opacity:1;fill-rule:nonzero;stroke:none"
         d="m 512.27,899.988 c 0,-25.008 125.039,-45.242 279.285,-45.242 154.215,0 279.285,20.234 279.285,45.242 0,24.973 -125.07,45.215 -279.285,45.215 -154.246,0 -279.285,-20.242 -279.285,-45.215" /><path
         id="path288"
         style="fill:#3d8a3f;fill-opacity:1;fill-rule:nonzero;stroke:none"
         d="m 888.652,873.113 c 0,0 18.246,115.266 59.961,159.767 0,0 -80.644,26.42 -152.953,43.1 0,0 -27.121,-140.609 -41.027,-210.16 0,0 61.265,-6.648 134.019,7.293" /><path
         id="path290"
         style="fill:#6fab70;fill-opacity:1;fill-rule:nonzero;stroke:none"
         d="m 807.203,1053.81 c 66.059,-3.29 119.867,-29.53 120.356,-29.67 0.336,-0.07 0.601,-0.32 0.726,-0.62 0.133,-0.33 0.098,-0.69 -0.094,-0.96 -41.691,-64.388 -68.046,-136.896 -68.265,-137.775 -0.129,-0.566 -0.707,-0.898 -1.258,-0.762 -0.426,0.11 -0.719,0.45 -0.781,0.848 -0.032,0.137 -0.028,0.274 0.008,0.41 0.226,0.879 26.398,72.602 67.769,137.139 -6.887,1.58 -57.129,26.15 -117.777,29.24 -2.77,-8.15 -32.555,-124.269 -35.012,-176.027 -0.023,-0.586 -0.52,-1.016 -1.082,-0.985 -0.586,0.02 -1.027,0.52 -0.992,1.075 2.527,53.496 34.89,175.987 35.367,177.367 0.141,0.45 0.574,0.72 1.035,0.72" /><path
         id="path292"
         style="fill:#6fab70;fill-opacity:1;fill-rule:nonzero;stroke:none"
         d="m 829.434,888.945 c 19.035,-3.164 35.914,3.035 37.711,13.836 1.793,10.805 -12.18,22.082 -31.2,25.285 -19.035,3.133 -35.918,-3.046 -37.715,-13.828 -1.785,-10.781 12.176,-22.121 31.204,-25.293" /><path
         id="path294"
         style="fill:#559e52;fill-opacity:1;fill-rule:nonzero;stroke:none"
         d="m 677.191,874.305 c 0,0 -24.769,97.394 -66.488,141.885 0,0 68.141,27.81 140.445,44.5 0,0 42.77,-126.901 56.672,-196.424 0,0 -57.882,-3.895 -130.629,10.039" /><path
         id="path296"
         style="fill:#a4c8a5;fill-opacity:1;fill-rule:nonzero;stroke:none"
         d="m 628.785,1005.73 c 0.11,0.32 0.371,0.57 0.723,0.66 0.465,0.13 48.656,31.11 114.597,36.29 0.465,0.02 0.907,-0.26 1.067,-0.68 0.441,-1.2 35.808,-116.367 47.93,-177.867 l -2.133,0.133 c -11.789,59.386 -44.856,169.194 -47.473,176.244 -60.527,-4.82 -105.23,-34.01 -112.058,-35.75 36.007,-52.838 54.285,-113.541 61.027,-135.287 l -2.277,0.363 c -7.129,22.781 -25.465,82.965 -61.293,134.964 -0.196,0.27 -0.235,0.63 -0.11,0.93" /><path
         id="path298"
         style="fill:#a4c8a5;fill-opacity:1;fill-rule:nonzero;stroke:none"
         d="m 743.813,872.461 c 18.828,4.187 32.179,16.25 29.804,26.914 -2.379,10.691 -19.554,15.965 -38.379,11.777 -18.832,-4.172 -32.179,-16.211 -29.812,-26.886 2.363,-10.703 19.554,-15.965 38.387,-11.805" /><path
         id="path300"
         style="fill:#6cb26a;fill-opacity:1;fill-rule:nonzero;stroke:none"
         d="m 959.309,875.703 c 0,0 47.711,97.383 89.421,141.867 0,0 -63.957,30.6 -136.265,47.29 0,0 -71.969,-130.008 -85.871,-199.559 0,0 68.312,-1.035 132.715,10.402" /><path
         id="path302"
         style="fill:#b0d3b1;fill-opacity:1;fill-rule:nonzero;stroke:none"
         d="m 918.938,1049.19 c 64.695,-13.76 111.662,-33.24 112.122,-33.43 0.31,-0.13 0.54,-0.4 0.62,-0.74 0.07,-0.33 -0.02,-0.7 -0.25,-0.92 -51.418,-56.912 -87.067,-139.342 -87.41,-140.174 -0.231,-0.52 -0.844,-0.774 -1.379,-0.547 -0.391,0.168 -0.629,0.547 -0.629,0.945 0,0.156 0.031,0.293 0.078,0.434 0.355,0.836 35.687,82.469 86.83,139.602 -6.55,2.67 -50.283,19.9 -109.658,32.61 -4.032,-7.59 -68.11,-129.079 -78.793,-179.775 -0.117,-0.586 -0.668,-0.945 -1.231,-0.84 -0.566,0.137 -0.925,0.688 -0.797,1.243 11.028,52.39 78.668,179.782 79.352,181.072 0.219,0.4 0.684,0.63 1.145,0.52" /><path
         id="path304"
         style="fill:#b0d3b1;fill-opacity:1;fill-rule:nonzero;stroke:none"
         d="m 901.715,890.117 c 18.566,-5.215 36.019,-0.898 38.984,9.617 2.961,10.539 -9.679,23.301 -28.238,28.536 -18.574,5.226 -36.023,0.949 -39,-9.59 -2.965,-10.547 9.684,-23.34 28.254,-28.563" /><path
         id="path306"
         style="fill:#6cb26a;fill-opacity:1;fill-rule:nonzero;stroke:none"
         d="m 589.586,875.703 c 0,0 -47.711,97.383 -89.43,141.867 0,0 63.953,30.6 136.282,47.29 0,0 69.515,-127.938 83.429,-197.458 0,0 -65.359,0 -130.281,8.301" /><path
         id="path308"
         style="fill:#b0d3b1;fill-opacity:1;fill-rule:nonzero;stroke:none"
         d="m 631.555,1048.87 c -64.586,-14.28 -111.559,-37.32 -112.012,-37.5 -0.328,-0.13 -0.551,-0.42 -0.621,-0.74 -0.07,-0.34 0.023,-0.7 0.254,-0.95 51.855,-56.496 81.531,-133.34 81.894,-134.153 0.239,-0.547 0.832,-0.769 1.379,-0.547 0.387,0.157 0.625,0.547 0.61,0.946 0,0.16 -0.012,0.293 -0.079,0.429 -0.363,0.813 -29.726,76.899 -81.3,133.645 6.535,2.7 50.293,23.48 109.57,36.64 4.082,-7.56 62.348,-126.472 73.402,-177.081 0.129,-0.586 0.68,-0.918 1.246,-0.809 0.567,0.117 0.918,0.672 0.786,1.219 -11.418,52.304 -73.286,177.101 -73.981,178.361 -0.219,0.43 -0.695,0.63 -1.148,0.54" /><path
         id="path310"
         style="fill:#b0d3b1;fill-opacity:1;fill-rule:nonzero;stroke:none"
         d="m 647.125,889.285 c 18.035,6.828 29.496,20.695 25.605,30.93 -3.878,10.215 -21.644,12.969 -39.667,6.113 -18.036,-6.836 -29.512,-20.676 -25.622,-30.898 3.883,-10.235 21.653,-12.989 39.684,-6.145" /><path
         id="path312"
         style="fill:#e7e8ec;fill-opacity:1;fill-rule:nonzero;stroke:none"
         d="m 958.145,629.758 51.575,-431.633 c 0,0 239.04,-87.727 447.13,0 l 25.79,436.816 -524.495,-5.183" /><path
         id="path314"
         style="fill:#e7e8ec;fill-opacity:1;fill-rule:nonzero;stroke:none"
         d="m 1499.18,631.563 c 0,-24.981 -125.04,-45.223 -279.28,-45.223 -154.22,0 -279.275,20.242 -279.275,45.223 0,24.968 125.055,45.234 279.275,45.234 154.24,0 279.28,-20.266 279.28,-45.234" /><path
         id="path316"
         style="fill:#3d8a3f;fill-opacity:1;fill-rule:nonzero;stroke:none"
         d="m 1122.81,604.707 c 0,0 -18.25,115.254 -59.97,159.746 0,0 80.64,26.434 152.96,43.125 0,0 27.11,-140.637 41.02,-210.156 0,0 -61.27,-6.652 -134.01,7.285" /><path
         id="path318"
         style="fill:#6fab70;fill-opacity:1;fill-rule:nonzero;stroke:none"
         d="m 1204.25,785.398 c -66.06,-3.289 -119.86,-29.55 -120.35,-29.668 -0.34,-0.085 -0.61,-0.308 -0.72,-0.625 -0.14,-0.308 -0.11,-0.671 0.08,-0.933 41.7,-64.399 68.05,-136.938 68.26,-137.793 0.14,-0.559 0.71,-0.902 1.27,-0.766 0.43,0.09 0.72,0.45 0.78,0.832 0.03,0.137 0.02,0.274 -0.01,0.43 -0.22,0.859 -26.4,72.605 -67.77,137.156 6.88,1.563 57.13,26.145 117.77,29.231 2.78,-8.157 32.57,-124.278 35.02,-176.028 0.03,-0.586 0.51,-1.043 1.09,-0.996 0.58,0.02 1.02,0.5 0.98,1.086 -2.52,53.485 -34.89,175.985 -35.36,177.352 -0.15,0.453 -0.58,0.722 -1.04,0.722" /><path
         id="path320"
         style="fill:#6fab70;fill-opacity:1;fill-rule:nonzero;stroke:none"
         d="m 1182.02,620.547 c -19.03,-3.176 -35.91,3.039 -37.7,13.828 -1.8,10.809 12.17,22.09 31.19,25.262 19.03,3.156 35.92,-3.016 37.71,-13.797 1.8,-10.813 -12.17,-22.149 -31.2,-25.293" /><path
         id="path322"
         style="fill:#559e52;fill-opacity:1;fill-rule:nonzero;stroke:none"
         d="m 1334.26,605.898 c 0,0 24.77,97.372 66.48,141.864 0,0 -68.13,27.812 -140.44,44.504 0,0 -42.76,-126.875 -56.67,-196.407 0,0 57.88,-3.894 130.63,10.039" /><path
         id="path324"
         style="fill:#a4c8a5;fill-opacity:1;fill-rule:nonzero;stroke:none"
         d="m 1382.67,737.344 c -0.11,0.312 -0.37,0.566 -0.71,0.652 -0.47,0.137 -48.67,31.094 -114.61,36.25 -0.46,0.051 -0.91,-0.223 -1.07,-0.672 -0.44,-1.203 -35.81,-116.347 -47.92,-177.844 l 2.13,0.129 c 11.79,59.383 44.86,169.2 47.46,176.25 60.54,-4.812 105.24,-34.004 112.07,-35.781 -36.02,-52.812 -54.28,-113.535 -61.04,-135.265 l 2.29,0.363 c 7.13,22.762 25.45,82.969 61.28,134.969 0.2,0.277 0.25,0.636 0.12,0.949" /><path
         id="path326"
         style="fill:#a4c8a5;fill-opacity:1;fill-rule:nonzero;stroke:none"
         d="m 1267.64,604.063 c -18.83,4.16 -32.18,16.238 -29.8,26.914 2.37,10.695 19.55,15.937 38.37,11.777 18.83,-4.199 32.19,-16.223 29.82,-26.895 -2.36,-10.703 -19.55,-15.988 -38.39,-11.796" /><path
         id="path328"
         style="fill:#6cb26a;fill-opacity:1;fill-rule:nonzero;stroke:none"
         d="m 1052.14,607.273 c 0,0 -47.7,97.415 -89.429,141.887 0,0 63.969,30.606 136.279,47.293 0,0 71.96,-130.027 85.87,-199.558 0,0 -68.31,-1.036 -132.72,10.378" /><path
         id="path330"
         style="fill:#b0d3b1;fill-opacity:1;fill-rule:nonzero;stroke:none"
         d="m 1092.52,780.781 c -64.7,-13.777 -111.661,-33.242 -112.122,-33.418 -0.316,-0.136 -0.55,-0.429 -0.625,-0.742 -0.07,-0.344 0.024,-0.703 0.25,-0.93 51.427,-56.933 87.067,-139.363 87.417,-140.175 0.23,-0.516 0.84,-0.758 1.36,-0.555 0.4,0.176 0.65,0.555 0.65,0.965 0,0.137 -0.03,0.265 -0.09,0.402 -0.36,0.84 -35.69,82.5 -86.821,139.637 6.543,2.637 50.271,19.883 109.651,32.59 4.03,-7.59 68.11,-129.075 78.79,-179.785 0.11,-0.567 0.67,-0.93 1.24,-0.809 0.57,0.105 0.92,0.672 0.8,1.238 -11.03,52.383 -78.67,179.754 -79.36,181.043 -0.22,0.43 -0.69,0.625 -1.14,0.539" /><path
         id="path332"
         style="fill:#b0d3b1;fill-opacity:1;fill-rule:nonzero;stroke:none"
         d="m 1109.75,621.711 c -18.57,-5.219 -36.02,-0.91 -38.99,9.629 -2.97,10.535 9.67,23.308 28.24,28.523 18.56,5.235 36.02,0.946 38.98,-9.59 2.98,-10.546 -9.68,-23.332 -28.23,-28.562" /><path
         id="path334"
         style="fill:#6cb26a;fill-opacity:1;fill-rule:nonzero;stroke:none"
         d="m 1421.86,607.273 c 0,0 47.73,97.415 89.43,141.887 0,0 -63.95,30.606 -136.27,47.293 0,0 -69.53,-127.937 -83.43,-197.461 0,0 65.35,0 130.27,8.281" /><path
         id="path336"
         style="fill:#b0d3b1;fill-opacity:1;fill-rule:nonzero;stroke:none"
         d="m 1379.9,780.438 c 64.59,-14.247 111.55,-37.293 112.01,-37.469 0.33,-0.137 0.55,-0.43 0.63,-0.742 0.07,-0.344 -0.02,-0.704 -0.26,-0.95 -51.85,-56.504 -81.53,-133.347 -81.89,-134.179 -0.24,-0.516 -0.84,-0.77 -1.38,-0.547 -0.39,0.187 -0.63,0.566 -0.62,0.976 0,0.129 0.01,0.293 0.08,0.403 0.37,0.84 29.73,76.894 81.3,133.66 -6.52,2.687 -50.29,23.5 -109.57,36.64 -4.08,-7.558 -62.34,-126.492 -73.4,-177.097 -0.12,-0.559 -0.67,-0.918 -1.24,-0.781 -0.58,0.109 -0.93,0.671 -0.8,1.211 11.43,52.316 73.3,177.097 73.99,178.359 0.22,0.43 0.69,0.633 1.15,0.516" /><path
         id="path338"
         style="fill:#b0d3b1;fill-opacity:1;fill-rule:nonzero;stroke:none"
         d="m 1364.32,620.867 c -18.02,6.836 -29.48,20.715 -25.6,30.918 3.89,10.246 21.65,12.988 39.67,6.145 18.03,-6.867 29.51,-20.696 25.63,-30.918 -3.88,-10.227 -21.66,-13 -39.7,-6.145" /></g></g></svg>